HIERARCHY
ROOT Hips
{
    OFFSET 14.111425399780273 94.90642547607422 -18.415620803833008
    CHANNELS 6 Xposition Yposition Zposition Zrotation Xrotation Yrotation
    JOINT RightUpLeg
    {
        OFFSET -14.111425399780273 0.0 0.0
        CHANNELS 3 Zrotation Xrotation Yrotation
        JOINT RightLeg
        {
            OFFSET 0.0 -48.86737060546875 0.0
            CHANNELS 3 Zrotation Xrotation Yrotation
            JOINT RightFoot
            {
                OFFSET 0.0 -46.03905487060547 0.0
                CHANNELS 3 Zrotation Xrotation Yrotation
                End Site
                {
                    OFFSET 0.0 0.0 18.415620803833008
                }
            }
        }
    }
    JOINT LeftUpLeg
    {
        OFFSET 14.111425399780273 0.0 0.0
        CHANNELS 3 Zrotation Xrotation Yrotation
        JOINT LeftLeg
        {
            OFFSET 0.0 -48.86737060546875 0.0
            CHANNELS 3 Zrotation Xrotation Yrotation
            JOINT LeftFoot
            {
                OFFSET 0.0 -46.03905487060547 0.0
                CHANNELS 3 Zrotation Xrotation Yrotation
                End Site
                {
                    OFFSET 0.0 0.0 18.415620803833008
                }
            }
        }
    }
    JOINT Spine
    {
        OFFSET 0.0 25.910593032836914 0.0
        CHANNELS 3 Zrotation Xrotation Yrotation
        JOINT Spine3
        {
            OFFSET 0.0 25.827213287353516 0.0
            CHANNELS 3 Zrotation Xrotation Yrotation
            JOINT Neck
            {
                OFFSET 0.0 11.638040542602539 0.0
                CHANNELS 3 Zrotation Xrotation Yrotation
                End Site
                {
                    OFFSET 0.0 4.655216217041016 0.0
                }
            }
            JOINT LeftArm
            {
                OFFSET 14.531964302062988 0.0 0.0
                CHANNELS 3 Zrotation Xrotation Yrotation
                JOINT LeftForeArm
                {
                    OFFSET 27.948984146118164 0.0 0.0
                    CHANNELS 3 Zrotation Xrotation Yrotation
                    JOINT LeftHand
                    {
                        OFFSET 23.671363830566406 0.0 0.0
                        CHANNELS 3 Zrotation Xrotation Yrotation
                        End Site
                        {
                            OFFSET 9.468545913696289 0.0 0.0
                        }
                    }
                }
            }
            JOINT RightArm
            {
                OFFSET -14.531964302062988 0.0 0.0
                CHANNELS 3 Zrotation Xrotation Yrotation
                JOINT RightForeArm
                {
                    OFFSET -27.948984146118164 0.0 0.0
                    CHANNELS 3 Zrotation Xrotation Yrotation
                    JOINT RightHand
                    {
                        OFFSET -23.671363830566406 0.0 0.0
                        CHANNELS 3 Zrotation Xrotation Yrotation
                        End Site
                        {
                            OFFSET -9.468545913696289 0.0 0.0
                        }
                    }
                }
            }
        }
    }
}
MOTION
Frames: 11
Frame Time: 0.03333333333333333
-0.00033859506947919726 95.22616577148438 -0.0008633492980152369 -14.561030187382283 -10.280994558559478 -27.690951034785094 8.60285532714475 21.13098862929359 -2.792769251987477 -4.126553924028406 8.065927942026043 -0.42857027672271525 -6.896728590703373e-33 1.5902773407317584e-15 4.969616689786745e-16 7.305023133002997 24.44812865582937 -2.6663176609876045 -0.40213296475300714 8.645323351967894 -0.8211108258901915 3.975693351829395e-16 -9.939233379573487e-17 -1.3914926731402882e-15 11.761746912474157 27.267883186708033 -5.028006500713772 -2.3035144582540007e-07 4.329375425191121e-07 -4.592316442444474 0.2675957890779053 9.337024200139556 -177.11925293830052 113.87869025499482 -0.48135337520883914 -160.64893442248754 -7.476404043924839e-06 -3.3009196264377046e-06 136.89276935113762 0.0 0.0 1.1927080055488186e-15 -115.55208122777361 -26.12007164382621 174.8254704674938 -1.2760401253961017e-06 -2.422488791461356e-07 -30.146781519440026 -5.367186024969684e-15 0.0 0.0
-0.00035428255796432495 95.22608947753906 -0.0008348417468369007 -14.391436830796923 -10.311306254425904 -27.532860611545086 8.470086298587455 21.085077851721117 -2.7963851218025146 -4.167973428511969 7.90972711509291 -0.4182073662381771 5.963540027744093e-16 4.969616689786745e-17 1.3417965062424209e-15 7.575124413544495 24.26291420716195 -2.825103632381777 -0.5702340107817505 8.476841821475546 -0.839452624674374 3.9756933518293955e-16 -1.551763932908259e-33 -4.47265502080807e-16 11.691185028693537 26.863635723435277 -5.000098320230962 7.618718741434266e-07 3.2241815932536456e-07 -4.452648853533035 -0.9612850461400904 9.890711128720437 -177.2757415458156 112.88542673744895 4.697810094884808 -159.37390088156195 -6.950690161820938e-07 4.0285307480652535e-06 137.9615816240167 0.0 0.0 -1.1927080055488188e-15 -115.30913081137614 -25.533849626008344 175.0802652264898 6.021128375533669e-06 5.848683446533256e-07 -30.182241979903498 -3.975693351829396e-15 -1.5902773407317584e-15 -1.5902773407317584e-15
-0.00035522071993909776 95.22604370117188 -0.0008071052143350244 -14.221007502337438 -10.389762025413917 -27.433934539722642 8.417994170238986 21.119064843172136 -2.8183538519512017 -4.222827333917748 8.076006887157025 -0.4253065276320552 2.31040407788563e-32 -1.5902773407317584e-15 1.6648215910785596e-15 7.945716257801653 23.846924888428855 -2.972147912577472 -0.9942299546191057 8.61447381991909 -0.8569239782256963 -7.951386703658791e-16 3.1805546814635164e-15 7.454425034680117e-16 11.656264727988239 26.450947348297856 -4.959102329224538 -4.430637777258535e-07 -4.344548252789868e-08 -4.240292240839595 -2.43551448104062 10.733724044543308 -176.96245336659618 112.1500141072084 11.44161515797022 -157.14236207470574 -1.1453395556822915e-06 2.9081232066586175e-06 138.6302390170926 0.0 0.0 7.454425034680116e-16 -115.39768739145764 -25.5243689543798 175.52929717705192 5.603666033290261e-08 1.3121694776749119e-06 -30.43224898958022 -4.67143968839954e-15 -2.3854160110976376e-15 -9.724387312891755e-32
-0.00038002562359906733 95.22594451904297 -0.000770669081248343 -13.979087416576258 -10.374208884524593 -27.200916760422107 8.376264018040281 21.13174214099526 -2.8376427324633324 -4.410084315295078 7.8302031122286015 -0.39290569376337015 -5.963540027744094e-16 1.5405811738338909e-15 9.93923337957349e-17 8.042435866596014 23.31760112993868 -2.984468155289342 -1.0384881550069933 8.507763421271072 -0.8692876561115164 7.951386703658792e-16 -3.103527865816518e-33 -4.472655020808071e-16 11.731642187133527 26.110645135003576 -4.974875138279107 -9.596643824899066e-08 -7.581252404917934e-07 -4.094297611437663 -3.7721851653238763 11.409874326869996 -176.17210422572128 110.81603831369148 17.275020618981024 -154.74318930248657 -1.4898041723593169e-06 -4.084173149182114e-06 139.05311136215792 6.3611093629270335e-15 3.1805546814635168e-15 -1.192708005548819e-15 -115.60418812045715 -25.349638286849686 175.70823881005455 -3.161095731649848e-06 -3.765946147356119e-07 -30.371163067158545 -7.35503270088438e-15 0.0 0.0
-0.00039720561471767724 95.22594451904297 -0.0007525515975430608 -13.89571225082579 -10.3148368361735 -26.914870896955485 8.631262954594549 21.14951427989821 -2.9003987313759096 -4.665632436695756 7.823884821033427 -0.3785481564960362 -1.9878466759146985e-16 -7.112251359162853e-33 4.0999337690740655e-15 8.35642081169869 22.95003385078977 -3.0285994307469917 -0.8969308480328213 8.251694118639085 -0.8964650459258267 7.951386703658792e-16 -9.93923337957349e-17 4.969616689786745e-17 11.934095726615258 25.67983730742866 -4.948997202971292 -4.252792450064301e-07 -2.4303737767310066e-07 -4.209936412302417 -4.544200455511032 11.92714151595482 -175.11810991822722 110.50409198697879 20.283628250564885 -153.32385432995775 -5.710948466964647e-06 -5.413164981870693e-07 138.75183651948268 0.0 3.1805546814635176e-15 0.0 -115.62227096678922 -25.285783939602933 175.98543879820855 -1.338121810345565e-06 1.017639444064647e-06 -30.23603860395619 6.957463365701443e-15 -9.655420026984722e-32 -1.5902773407317584e-15
-0.00037305307341739535 95.22590637207031 -0.0007197140948846936 -13.751819151024172 -10.288608662393655 -26.65059715930863 8.747968451435248 21.11039816086614 -2.918923739138911 -4.799616833642705 7.838068562845189 -0.3694014571117227 0.0 0.0 1.441188840038156e-15 8.654986221118014 22.66918391967166 -3.089881282972973 -1.1381529193686684 8.062425502805608 -0.8760777974152378 3.975693351829397e-16 6.896728590703373e-34 1.9878466759146985e-16 12.059897800647157 25.308995520055685 -4.91501444668134 -1.6700419877273432e-07 -3.002081977289878e-07 -4.210659306533352 -5.040211118473339 12.139877003499826 -173.80211895874876 109.30177067279729 23.422220980042532 -151.6438922180022 8.377145833475266e-06 -3.2373913407548237e-06 138.09875563330078 6.361109362927033e-15 -2.2069531490250793e-32 -3.9756933518293955e-16 -115.48352119278736 -24.390325385711126 176.30605504155204 -3.7161688635272262e-06 -1.370932693152093e-06 -30.125023349752016 2.9817700138720468e-15 4.1380371544220234e-32 1.5902773407317582e-15
-0.0003843846498057246 95.22590637207031 -0.0006998161552473903 -13.731459572071541 -10.282749861987465 -26.820274350568067 8.721429142374587 21.247488611645924 -2.953480302562081 -4.853698319895896 7.676495493850816 -0.3592242588639586 -1.987846675914698e-16 -2.5862732215137646e-33 1.4908850069360234e-15 8.660221564856052 22.544318068810966 -3.1035588514296686 -0.9766039391018301 8.196481758470137 -0.9250034553260937 -3.9756933518293955e-16 9.483001812217137e-33 -2.7332891793827093e-15 12.108139382108735 25.181317994584482 -4.944488144499323 2.6550862732737564e-07 -3.4283754251789134e-07 -4.066270064276035 -5.350207389003011 12.582446411630514 -173.36770056319864 108.65070302164884 25.177628990736938 -150.4764841854007 2.093982581277931e-06 4.3494913463519784e-08 137.36096680348587 0.0 0.0 0.0 -115.7387527804681 -25.001631013661356 176.3694434322698 1.2982431590870882e-06 -3.6121461166072486e-06 -30.36271673909587 -1.1927080055488188e-15 -1.6552148617688095e-32 1.5902773407317584e-15
-0.00036728879786096513 95.225830078125 -0.0006740716053172946 -13.871432767929004 -10.172765797793943 -26.857424847566538 9.133687226450006 21.318420355155563 -3.045278664865611 -4.8488311356420315 7.80012640563899 -0.3933594034820646 0.0 0.0 -1.1678599220998848e-15 9.06994747185511 22.361531210396386 -3.1648445420534257 -1.31048976130228 8.248641177105943 -0.9132488557831453 0.0 0.0 4.572047354603804e-15 12.201410576628593 25.045975818697276 -4.877585653850932 -2.8463134854079824e-07 -5.139124973952847e-07 -3.9179635909592276 -4.958290472368998 12.826908643509032 -172.77142335896707 108.55638816453158 26.365040860480992 -149.5070175493318 -2.5667998214171144e-06 -1.8637532916111846e-06 136.28561946101698 6.3611093629270335e-15 0.0 0.0 -115.6114412079444 -25.199337927647477 176.60466808928913 6.079898501775874e-07 -1.259953125816382e-06 -30.622874030404486 3.677516350442191e-15 7.951386703658791e-16 -1.5902773407317584e-15
-0.00035858675255440176 95.22586822509766 -0.0006837386754341424 -14.041791647083222 -10.167864822552746 -27.26501998216585 9.186034998809774 21.536318992193724 -3.059986659495499 -4.49582369748958 7.78045941407655 -0.4336877919429784 -2.9817700138720465e-16 1.5902773407317582e-15 3.8514529345847267e-16 9.066128056328486 22.37109792076597 -3.1290546775323707 -0.9940217783682485 8.49162155913368 -0.9739940621674652 3.975693351829395e-16 1.2069275033730902e-33 3.4787316828507205e-16 12.097377075502573 25.21506366397804 -4.821995658500927 -4.4203188852772584e-07 -5.74589437811955e-07 -3.9473407053284313 -4.806996089707435 12.77486548648097 -172.10563027832742 109.38775066969973 26.01198116660322 -149.29207533114734 -3.0736296901015563e-06 -4.686015618711015e-08 136.42551672544758 0.0 0.0 -1.1927080055488188e-15 -115.60572103127471 -25.741378866928006 176.37257521432275 -4.589659832644383e-07 -7.171253081153621e-07 -31.153790760433218 5.9635400277440935e-15 7.951386703658792e-16 1.5902773407317584e-15
-0.0003406944451853633 95.22591400146484 -0.0007091712323017418 -14.200836444219386 -10.074559926909144 -27.38633160305454 9.468912009350978 21.57872509288448 -3.1050452842412155 -4.298152601197333 7.91517406702579 -0.48163816671123966 5.34233794152075e-16 -1.5902773407317584e-15 -4.738218912668549e-15 9.623099543376219 22.21318516990046 -3.254310934052516 -1.178700090459562 8.335177461411023 -0.9818513182553484 -1.1927080055488186e-15 1.551763932908259e-33 -1.4908850069360232e-16 12.018375606087393 25.201024887779376 -4.706850918881992 3.169908914699282e-07 -5.232826137436835e-07 -3.9419091334733367 -4.625321761333877 12.725881232363886 -171.13450039187492 110.29378083615076 25.32234472392123 -148.93326546497403 2.989154093422033e-06 -3.00414590858844e-06 136.50004017082497 0.0 0.0 -7.951386703658792e-16 -115.29446134953643 -25.598806763175865 176.5491252023499 -3.2831009069904717e-06 -1.6432521023390293e-06 -31.483223737247922 -4.174478019420865e-15 -2.3854160110976368e-15 -8.68987802428625e-32
-0.0003281769750174135 95.2260513305664 -0.0007531796582043171 -14.122035799588504 -10.062272479849161 -27.237185817332936 9.592385557132047 21.29663601534743 -3.122944492232362 -4.356407098842111 8.058510071582921 -0.504234207816069 -2.795409388005044e-16 2.0287343409970035e-33 -8.316342929315006e-16 9.687024491357827 22.033483126739267 -3.265473428418763 -0.4217779884162975 8.503053610914622 -1.1297702290436102 -7.951386703658792e-16 1.987846675914698e-16 -7.951386703658792e-16 11.523142277218039 25.27612247504938 -4.515400554838844 -8.884973269668076e-08 1.4262813783700052e-07 -3.9322913543511744 -4.317033696717512 12.667343330407212 -170.87020763306998 111.13912383610435 25.085958553240566 -148.58306920803346 4.896787782743975e-06 -2.2316585537609427e-06 136.62827499072054 -6.3611093629270335e-15 0.0 0.0 -115.04311691832987 -26.679599300300996 176.53069310208673 -1.3498205071389072e-06 -4.241890225558885e-07 -31.55195261386537 1.4908850069360238e-15 0.0 0.0
